<?xml version="1.0" encoding="UTF-8" standalone="no"?>
<svg
   xmlns:dc="http://purl.org/dc/elements/1.1/"
   xmlns:cc="http://creativecommons.org/ns#"
   xmlns:rdf="http://www.w3.org/1999/02/22-rdf-syntax-ns#"
   xmlns:svg="http://www.w3.org/2000/svg"
   xmlns="http://www.w3.org/2000/svg"
   viewBox="0 0 29.333866 16"
   height="16"
   width="29.333866"
   xml:space="preserve"
   id="svg2"
   version="1.1"><metadata
     id="metadata8"><rdf:RDF><cc:Work
         rdf:about=""><dc:format>image/svg+xml</dc:format><dc:type
           rdf:resource="http://purl.org/dc/dcmitype/StillImage" /></cc:Work></rdf:RDF></metadata><defs
     id="defs6"><clipPath
       id="clipPath18"
       clipPathUnits="userSpaceOnUse"><path
         id="path16"
         d="M 0,12 H 22 V 0 H 0 Z" /></clipPath></defs><g
     transform="matrix(1.3333333,0,0,-1.3333333,0,16)"
     id="g10"><g
       id="g12"><g
         clip-path="url(#clipPath18)"
         id="g14"><g
           transform="translate(13.6614,3.6858)"
           id="g20"><path
             id="path22"
             style="fill:#000000;fill-opacity:1;fill-rule:nonzero;stroke:none"
             d="m 0,0 c 0.659,0 1.233,-0.599 1.842,-1.232 0.364,-0.381 0.741,-0.774 1.096,-0.996 0.534,-0.335 0.965,-0.32 1.026,-0.313 l 0.075,0.007 2.79,0.035 c 0.126,0.01 0.302,0.056 0.394,0.103 C 7.209,-2.365 7.187,-2.323 7.15,-2.268 6.821,-1.722 6.133,-1.005 5.181,-0.198 4.312,0.535 3.86,0.917 3.813,1.51 3.765,2.124 4.175,2.606 4.992,3.569 5.197,3.811 5.435,4.09 5.701,4.413 6.844,5.8 7.136,6.423 7.21,6.664 7.085,6.686 6.734,6.68 6.713,6.678 L 3.515,6.656 C 3.375,6.656 3.332,6.63 3.332,6.629 3.203,6.314 2.737,5.25 2.127,4.307 0.737,2.159 0.085,1.87 -0.371,1.869 c -0.15,0 -0.291,0.038 -0.417,0.113 -0.736,0.433 -0.707,1.396 -0.686,2.099 0.004,0.114 0.008,0.225 0.008,0.328 0,0.492 0.018,0.92 0.035,1.286 0.056,1.28 0.012,1.289 -0.278,1.353 -0.3,0.065 -0.517,0.112 -1.361,0.121 l -0.508,0.004 c -0.458,0 -0.984,-0.011 -1.398,-0.075 0.068,-0.056 0.132,-0.119 0.19,-0.191 0.432,-0.536 0.443,-1.486 0.441,-1.671 0.095,-1.253 0.045,-2.89 -0.746,-3.284 -0.14,-0.07 -0.288,-0.104 -0.438,-0.104 -0.679,0 -1.36,0.673 -2.512,2.487 -0.656,1.032 -1.144,2.151 -1.163,2.199 -0.008,0.016 -0.04,0.058 -0.055,0.071 -0.061,0.041 -0.171,0.074 -0.235,0.089 l -2.934,-0.019 c -0.015,0 -0.033,-10e-4 -0.051,-0.003 0.433,-0.906 2.512,-5.02 4.78,-7.173 2.009,-1.905 4.272,-2.002 4.705,-2.002 l 1.358,0.003 c 0.033,0.008 0.159,0.047 0.197,0.076 -0.014,-0.014 -0.007,0.04 -0.007,0.073 -0.002,0.203 0.009,1.977 1.157,2.311 C -0.197,-0.014 -0.1,0 0,0 m 3.892,-3.686 c -0.284,0 -0.858,0.063 -1.522,0.482 -0.471,0.293 -0.896,0.736 -1.308,1.166 -0.321,0.335 -0.859,0.896 -1.061,0.896 -0.196,-0.057 -0.353,-0.701 -0.349,-1.195 0.003,-0.086 -0.001,-0.589 -0.343,-0.923 -0.312,-0.304 -0.798,-0.37 -0.892,-0.38 l -1.412,-0.005 c -0.709,0 -3.195,0.166 -5.447,2.3 -2.694,2.558 -5.012,7.462 -5.11,7.669 -0.144,0.351 -0.182,0.811 0.112,1.128 0.287,0.315 0.793,0.36 0.996,0.365 l 2.994,0.018 0.084,-0.006 c 0.067,-0.011 0.416,-0.072 0.702,-0.266 0.285,-0.188 0.433,-0.495 0.459,-0.556 0.008,-0.015 0.476,-1.09 1.082,-2.043 0.962,-1.516 1.39,-1.87 1.542,-1.951 0.138,0.318 0.203,1.294 0.137,2.186 0.001,0.375 -0.074,0.836 -0.185,0.973 -0.082,0.102 -0.312,0.193 -0.57,0.224 l -0.53,0.526 c -0.07,0.501 0.466,0.934 0.843,1.101 0.54,0.241 1.314,0.291 2.307,0.291 L -3.058,8.311 C -2.152,8.301 -1.869,8.249 -1.482,8.165 -0.234,7.89 -0.279,6.848 -0.333,5.643 -0.349,5.29 -0.367,4.881 -0.367,4.409 c 0,-0.116 -0.003,-0.238 -0.008,-0.365 -0.009,-0.29 -0.023,-0.791 0.068,-0.993 0.161,0.11 0.625,0.506 1.52,1.89 0.574,0.888 1.026,1.934 1.112,2.135 v 0.001 c 0.134,0.327 0.446,0.716 1.184,0.72 L 6.643,7.815 C 6.651,7.818 6.769,7.828 6.919,7.828 7.638,7.828 8.09,7.609 8.262,7.177 8.459,6.682 8.386,5.916 6.536,3.671 6.265,3.342 6.025,3.059 5.816,2.813 5.378,2.296 4.925,1.763 4.909,1.598 4.948,1.469 5.395,1.092 5.827,0.727 6.949,-0.224 7.681,-0.998 8.051,-1.614 8.434,-2.191 8.365,-2.627 8.24,-2.891 7.93,-3.549 7.039,-3.632 6.864,-3.641 L 4.085,-3.677 C 4.044,-3.682 3.979,-3.686 3.892,-3.686" /></g></g></g></g></svg>